<svg width="566" height="421" viewBox="0 0 566 421" fill="none" xmlns="http://www.w3.org/2000/svg">
<g clip-path="url(#clip0)">
<g opacity="0.8">
<path opacity="0.8" d="M566 0H297.379V267.685H566V0Z" fill="url(#paint0_linear)"/>
</g>
<path d="M561.556 178.723H301.817V261.855H561.556V178.723Z" fill="white"/>
<path d="M333.201 198.441H323.136V241.04H333.201V198.441Z" fill="#64FFDA"/>
<g opacity="0.7">
<path opacity="0.7" d="M353.07 198.441H343.005V241.04H353.07V198.441Z" fill="#64FFDA"/>
</g>
<g opacity="0.6">
<path opacity="0.6" d="M372.946 198.441H362.88V241.04H372.946V198.441Z" fill="#64FFDA"/>
</g>
<g opacity="0.5">
<path opacity="0.5" d="M392.814 198.441H382.749V241.04H392.814V198.441Z" fill="#EC5A06"/>
</g>
<g opacity="0.5">
<path opacity="0.5" d="M412.683 198.441H402.618V241.04H412.683V198.441Z" fill="#EC5A06"/>
</g>
<g opacity="0.4">
<path opacity="0.4" d="M432.552 198.441H422.487V241.04H432.552V198.441Z" fill="#EC5A06"/>
</g>
<g opacity="0.3">
<path opacity="0.3" d="M452.427 198.441H442.362V241.04H452.427V198.441Z" fill="#EC5A06"/>
</g>
<path d="M524.785 241.151C538.199 241.151 549.072 231.442 549.072 219.466C549.072 207.49 538.199 197.782 524.785 197.782C511.372 197.782 500.498 207.49 500.498 219.466C500.498 231.442 511.372 241.151 524.785 241.151Z" fill="#3D2CEC"/>
<path d="M561.556 92.3522H301.817V175.484H561.556V92.3522Z" fill="white"/>
<path d="M333.201 112.07H323.136V154.669H333.201V112.07Z" fill="#EC5A06"/>
<g opacity="0.7">
<path opacity="0.7" d="M353.07 112.07H343.005V154.669H353.07V112.07Z" fill="#EC5A06"/>
</g>
<g opacity="0.6">
<path opacity="0.6" d="M372.946 112.07H362.88V154.669H372.946V112.07Z" fill="#EC5A06"/>
</g>
<g opacity="0.5">
<path opacity="0.5" d="M392.814 112.07H382.749V154.669H392.814V112.07Z" fill="#EC5A06"/>
</g>
<g opacity="0.5">
<path opacity="0.5" d="M412.683 112.07H402.618V154.669H412.683V112.07Z" fill="#EC5A06"/>
</g>
<g opacity="0.4">
<path opacity="0.4" d="M432.552 112.07H422.487V154.669H432.552V112.07Z" fill="#EC5A06"/>
</g>
<g opacity="0.3">
<path opacity="0.3" d="M452.427 112.07H442.362V154.669H452.427V112.07Z" fill="#EC5A06"/>
</g>
<path d="M524.785 154.786C538.199 154.786 549.072 145.077 549.072 133.101C549.072 121.125 538.199 111.417 524.785 111.417C511.372 111.417 500.498 121.125 500.498 133.101C500.498 145.077 511.372 154.786 524.785 154.786Z" fill="#3D2CEC"/>
<path d="M561.556 5.98132H301.817V89.1135H561.556V5.98132Z" fill="white"/>
<path d="M333.201 25.7053H323.136V68.3043H333.201V25.7053Z" fill="#EC5A06"/>
<g opacity="0.7">
<path opacity="0.7" d="M353.07 25.7053H343.005V68.3043H353.07V25.7053Z" fill="#EC5A06"/>
</g>
<g opacity="0.6">
<path opacity="0.6" d="M372.946 25.7053H362.88V68.3043H372.946V25.7053Z" fill="#EC5A06"/>
</g>
<g opacity="0.5">
<path opacity="0.5" d="M392.814 25.7053H382.749V68.3043H392.814V25.7053Z" fill="#EC5A06"/>
</g>
<g opacity="0.5">
<path opacity="0.5" d="M412.683 25.7053H402.618V68.3043H412.683V25.7053Z" fill="#EC5A06"/>
</g>
<g opacity="0.4">
<path opacity="0.4" d="M432.552 25.7053H422.487V68.3043H432.552V25.7053Z" fill="#EC5A06"/>
</g>
<g opacity="0.3">
<path opacity="0.3" d="M452.427 25.7053H442.362V68.3043H452.427V25.7053Z" fill="#EC5A06"/>
</g>
<path d="M524.785 70.1075C539.245 70.1075 550.968 59.6413 550.968 46.7305C550.968 33.8198 539.245 23.3536 524.785 23.3536C510.325 23.3536 498.603 33.8198 498.603 46.7305C498.603 59.6413 510.325 70.1075 524.785 70.1075Z" fill="url(#paint1_linear)"/>
<path d="M524.785 157.056C539.245 157.056 550.968 146.59 550.968 133.679C550.968 120.768 539.245 110.302 524.785 110.302C510.325 110.302 498.603 120.768 498.603 133.679C498.603 146.59 510.325 157.056 524.785 157.056Z" fill="url(#paint2_linear)"/>
<path d="M524.785 243.421C539.245 243.421 550.968 232.955 550.968 220.044C550.968 207.133 539.245 196.667 524.785 196.667C510.325 196.667 498.603 207.133 498.603 220.044C498.603 232.955 510.325 243.421 524.785 243.421Z" fill="url(#paint3_linear)"/>
<path d="M524.785 68.4151C538.199 68.4151 549.072 58.7066 549.072 46.7305C549.072 34.7544 538.199 25.0459 524.785 25.0459C511.372 25.0459 500.498 34.7544 500.498 46.7305C500.498 58.7066 511.372 68.4151 524.785 68.4151Z" fill="#3D2CEC"/>
<g opacity="0.8">
<path opacity="0.8" d="M381.122 405.781H21.6139V200.851C21.6139 199.64 21.881 198.441 22.4 197.323C22.9189 196.204 23.6796 195.188 24.6385 194.332C25.5974 193.475 26.7358 192.796 27.9886 192.333C29.2415 191.87 30.5843 191.631 31.9404 191.631H370.789C372.145 191.631 373.488 191.87 374.741 192.333C375.993 192.796 377.132 193.475 378.091 194.332C379.05 195.188 379.81 196.204 380.329 197.323C380.848 198.441 381.115 199.64 381.115 200.851L381.122 405.781Z" fill="url(#paint4_linear)"/>
</g>
<path d="M36.8946 195.401H365.841C368.58 195.401 371.207 196.372 373.143 198.101C375.08 199.83 376.168 202.176 376.168 204.621V405.781H26.568V204.621C26.568 202.176 27.656 199.83 29.5926 198.101C31.5292 196.372 34.1558 195.401 36.8946 195.401Z" fill="white"/>
<path d="M364.913 207.638H37.8227V399.187H364.913V207.638Z" fill="#F5F5F5"/>
<path opacity="0.8" d="M364.782 216.94H39.0775V389.273H364.782V216.94Z" fill="#E0E0E0"/>
<path d="M364.782 207.784H39.0775V216.94H364.782V207.784Z" fill="#F5F5F5"/>
<path d="M46.0578 214.436C47.4294 214.436 48.5414 213.443 48.5414 212.219C48.5414 210.994 47.4294 210.001 46.0578 210.001C44.6861 210.001 43.5742 210.994 43.5742 212.219C43.5742 213.443 44.6861 214.436 46.0578 214.436Z" fill="#FF5252"/>
<path d="M52.8942 214.436C54.2658 214.436 55.3778 213.443 55.3778 212.219C55.3778 210.994 54.2658 210.001 52.8942 210.001C51.5225 210.001 50.4106 210.994 50.4106 212.219C50.4106 213.443 51.5225 214.436 52.8942 214.436Z" fill="#FFFF00"/>
<path d="M59.7372 214.436C61.1088 214.436 62.2208 213.443 62.2208 212.219C62.2208 210.994 61.1088 210.001 59.7372 210.001C58.3655 210.001 57.2536 210.994 57.2536 212.219C57.2536 213.443 58.3655 214.436 59.7372 214.436Z" fill="#69F0AE"/>
<g opacity="0.8">
<path opacity="0.8" d="M391.18 419.547C371.168 420.901 27.4894 420.358 15.4766 419.547C-0.268109 412.772 -0.000136853 386.489 -0.000136853 386.489L157.611 385.55L158.14 393.55H225.616L228.23 386.489H402.919C402.919 386.489 406.389 410.607 391.18 419.547Z" fill="url(#paint5_linear)"/>
</g>
<path d="M400.357 388.607H229.08C229.753 389.285 230.192 390.123 230.341 391.019C230.491 391.915 230.345 392.831 229.921 393.654C229.498 394.478 228.815 395.173 227.957 395.656C227.098 396.139 226.101 396.389 225.086 396.374H159.728C158.714 396.389 157.716 396.139 156.858 395.656C155.999 395.173 155.317 394.478 154.893 393.654C154.47 392.831 154.324 391.915 154.474 391.019C154.623 390.123 155.061 389.285 155.735 388.607H2.3725C2.3725 388.607 2.11107 411.436 17.6597 417.318C29.5222 418.024 368.998 418.485 388.762 417.318C403.788 409.551 400.357 388.607 400.357 388.607Z" fill="#F5F5F5"/>
<path d="M37.9534 395.429C39.1193 395.429 40.0644 394.585 40.0644 393.544C40.0644 392.503 39.1193 391.659 37.9534 391.659C36.7875 391.659 35.8423 392.503 35.8423 393.544C35.8423 394.585 36.7875 395.429 37.9534 395.429Z" fill="#E0E0E0"/>
<path d="M44.28 395.429C45.4459 395.429 46.3911 394.585 46.3911 393.544C46.3911 392.503 45.4459 391.659 44.28 391.659C43.1141 391.659 42.1689 392.503 42.1689 393.544C42.1689 394.585 43.1141 395.429 44.28 395.429Z" fill="#E0E0E0"/>
<path d="M50.6067 395.429C51.7726 395.429 52.7177 394.585 52.7177 393.544C52.7177 392.503 51.7726 391.659 50.6067 391.659C49.4408 391.659 48.4956 392.503 48.4956 393.544C48.4956 394.585 49.4408 395.429 50.6067 395.429Z" fill="#E0E0E0"/>
<g opacity="0.7">
<path opacity="0.7" d="M191.205 223.714L127.768 258.57C127.768 258.57 127.768 330.463 191.205 369.671C254.641 330.457 254.641 258.57 254.641 258.57L191.205 223.714Z" fill="url(#paint6_linear)"/>
</g>
<path d="M191.205 227.829L131.37 260.723C131.37 260.723 131.37 328.566 191.237 365.569C251.105 328.566 251.105 260.723 251.105 260.723L191.205 227.829Z" fill="#3D2CEC"/>
<path opacity="0.05" d="M192.224 227.829L191.198 228.412V364.962L192.224 365.604C252.092 328.601 252.092 260.758 252.092 260.758L192.224 227.829Z" fill="black"/>
<path d="M191.205 235.776L138.265 264.872C138.265 264.872 138.265 324.884 191.205 357.621C244.145 324.884 244.145 264.872 244.145 264.872L191.205 235.776Z" fill="#3D2CEC"/>
<path opacity="0.08" d="M191.205 236.004V357.825C244.145 325.088 244.145 265.076 244.145 265.076L191.205 236.004Z" fill="black"/>
<path d="M156.206 178.787V57.9929H267.968" stroke="#EC5A06" stroke-width="2" stroke-miterlimit="10" stroke-dasharray="12 12"/>
<path d="M121.566 142.024V21.2295H233.328" stroke="#EC5A06" stroke-width="2" stroke-miterlimit="10" stroke-dasharray="12 12"/>
<path d="M467.963 278.574V373.109H409.141" stroke="#EC5A06" stroke-width="2" stroke-miterlimit="10" stroke-dasharray="12 12"/>
<path d="M503.256 299.582V394.116H444.434" stroke="#EC5A06" stroke-width="2" stroke-miterlimit="10" stroke-dasharray="12 12"/>
</g>
<defs>
<linearGradient id="paint0_linear" x1="431.689" y1="267.685" x2="431.689" y2="0" gradientUnits="userSpaceOnUse">
<stop stop-color="#808080" stop-opacity="0.25"/>
<stop offset="0.54" stop-color="#808080" stop-opacity="0.12"/>
<stop offset="1" stop-color="#808080" stop-opacity="0.1"/>
</linearGradient>
<linearGradient id="paint1_linear" x1="42544.4" y1="5640.36" x2="42544.4" y2="1894.44" gradientUnits="userSpaceOnUse">
<stop stop-color="#808080" stop-opacity="0.25"/>
<stop offset="0.54" stop-color="#808080" stop-opacity="0.12"/>
<stop offset="1" stop-color="#808080" stop-opacity="0.1"/>
</linearGradient>
<linearGradient id="paint2_linear" x1="42544.4" y1="12693.6" x2="42544.4" y2="8947.71" gradientUnits="userSpaceOnUse">
<stop stop-color="#808080" stop-opacity="0.25"/>
<stop offset="0.54" stop-color="#808080" stop-opacity="0.12"/>
<stop offset="1" stop-color="#808080" stop-opacity="0.1"/>
</linearGradient>
<linearGradient id="paint3_linear" x1="42544.4" y1="19699.6" x2="42544.4" y2="15953.6" gradientUnits="userSpaceOnUse">
<stop stop-color="#808080" stop-opacity="0.25"/>
<stop offset="0.54" stop-color="#808080" stop-opacity="0.12"/>
<stop offset="1" stop-color="#808080" stop-opacity="0.1"/>
</linearGradient>
<linearGradient id="paint4_linear" x1="170824" y1="168338" x2="170824" y2="89751.4" gradientUnits="userSpaceOnUse">
<stop stop-color="#808080" stop-opacity="0.25"/>
<stop offset="0.54" stop-color="#808080" stop-opacity="0.12"/>
<stop offset="1" stop-color="#808080" stop-opacity="0.1"/>
</linearGradient>
<linearGradient id="paint5_linear" x1="191750" y1="28597.8" x2="191750" y2="26519.2" gradientUnits="userSpaceOnUse">
<stop stop-color="#808080" stop-opacity="0.25"/>
<stop offset="0.54" stop-color="#808080" stop-opacity="0.12"/>
<stop offset="1" stop-color="#808080" stop-opacity="0.1"/>
</linearGradient>
<linearGradient id="paint6_linear" x1="58432.2" y1="105796" x2="58432.2" y2="69287.6" gradientUnits="userSpaceOnUse">
<stop stop-color="#808080" stop-opacity="0.25"/>
<stop offset="0.54" stop-color="#808080" stop-opacity="0.12"/>
<stop offset="1" stop-color="#808080" stop-opacity="0.1"/>
</linearGradient>
<clipPath id="clip0">
<rect width="566" height="420.37" fill="white"/>
</clipPath>
</defs>
</svg>
