<svg width="617" height="462" viewBox="0 0 617 462" fill="none" xmlns="http://www.w3.org/2000/svg">
<g clip-path="url(#clip0)">
<path d="M150.064 120.047H63.0754C59.3604 120.047 56.3488 122.762 56.3488 126.11V278.861C56.3488 282.21 59.3604 284.924 63.0754 284.924H150.064C153.779 284.924 156.79 282.21 156.79 278.861V126.11C156.79 122.762 153.779 120.047 150.064 120.047Z" fill="url(#paint0_linear)"/>
<path d="M147.75 122.757H65.3893C61.6743 122.757 58.6627 125.472 58.6627 128.82V275.029C58.6627 278.378 61.6743 281.092 65.3893 281.092H147.75C151.465 281.092 154.477 278.378 154.477 275.029V128.82C154.477 125.472 151.465 122.757 147.75 122.757Z" fill="white"/>
<path d="M143.932 133.654L69.7509 133.748L69.9505 262.598L144.131 262.505L143.932 133.654Z" fill="#E6E6E6"/>
<path d="M107.057 277.297C110.323 277.292 112.966 274.843 112.961 271.826C112.957 268.809 110.306 266.367 107.04 266.371C103.775 266.375 101.131 268.824 101.136 271.841C101.141 274.858 103.792 277.301 107.057 277.297Z" fill="#DBDBDB"/>
<path d="M95.6003 128.792C96.2542 128.791 96.7835 128.302 96.7825 127.699C96.7816 127.097 96.2508 126.609 95.597 126.609C94.9431 126.61 94.4138 127.1 94.4148 127.702C94.4157 128.305 94.9465 128.793 95.6003 128.792Z" fill="#DBDBDB"/>
<path d="M118.582 126.853L101.591 126.875C101.219 126.875 100.919 127.147 100.919 127.482L100.92 127.906C100.92 128.241 101.222 128.512 101.593 128.512L118.585 128.49C118.956 128.49 119.257 128.218 119.256 127.883L119.256 127.459C119.255 127.124 118.954 126.853 118.582 126.853Z" fill="#DBDBDB"/>
<path d="M127.94 208.421H85.9391V248.17H127.94V208.421Z" fill="url(#paint1_linear)"/>
<path d="M126.117 210.149H87.7688V246.442H126.117V210.149Z" fill="#3D2CEC"/>
<g opacity="0.5">
<path opacity="0.5" d="M109.845 226.598V225.913H111.863V222.403C112.475 221.566 112.827 220.598 112.883 219.597C112.94 218.597 112.699 217.601 112.185 216.713C111.672 215.825 110.904 215.077 109.962 214.546C109.02 214.015 107.937 213.72 106.826 213.693C105.715 213.666 104.617 213.906 103.644 214.39C102.671 214.874 101.859 215.583 101.292 216.445C100.725 217.307 100.424 218.289 100.42 219.291C100.416 220.292 100.709 221.277 101.269 222.142V225.913H103.496V226.72C100.768 227.397 98.3634 228.863 96.649 230.891C94.9346 232.919 94.0055 235.398 94.0043 237.948V248.17H119.895V237.948C119.894 235.31 118.899 232.751 117.073 230.689C115.247 228.627 112.699 227.185 109.845 226.598Z" fill="url(#paint2_linear)"/>
</g>
<path d="M111.413 219.48H101.827V226.392H111.413V219.48Z" fill="#F55F44"/>
<path d="M103.899 226.756H109.953C112.247 226.756 114.448 227.577 116.07 229.04C117.692 230.502 118.604 232.485 118.604 234.553V246.546H95.2487V234.541C95.2523 232.475 96.1653 230.495 97.7871 229.035C99.409 227.576 101.607 226.756 103.899 226.756Z" fill="#FDD835"/>
<path d="M107.444 223.3H105.958C104.787 223.3 103.839 224.155 103.839 225.21V227.841C103.839 228.896 104.787 229.751 105.958 229.751H107.444C108.614 229.751 109.563 228.896 109.563 227.841V225.21C109.563 224.155 108.614 223.3 107.444 223.3Z" fill="#FDA57D"/>
<path d="M105.608 229.557L106.677 230.964L107.801 229.557H105.608Z" fill="#FDA57D"/>
<path opacity="0.1" d="M99.648 234.638C99.648 234.638 98.5111 244.836 99.2443 245.497L99.648 234.638Z" fill="black"/>
<path opacity="0.1" d="M113.707 234.638C113.707 234.638 114.843 244.836 114.11 245.497L113.707 234.638Z" fill="black"/>
<path opacity="0.05" d="M106.704 226.435C107.721 226.435 108.711 226.142 109.529 225.598C109.422 224.992 109.079 224.44 108.561 224.041C108.044 223.642 107.385 223.422 106.704 223.421C106.023 223.422 105.365 223.642 104.847 224.041C104.329 224.44 103.986 224.992 103.879 225.598C104.697 226.142 105.687 226.435 106.704 226.435Z" fill="black"/>
<path d="M106.704 225.507C109.821 225.507 112.348 223.229 112.348 220.42C112.348 217.611 109.821 215.333 106.704 215.333C103.587 215.333 101.061 217.611 101.061 220.42C101.061 223.229 103.587 225.507 106.704 225.507Z" fill="#F55F44"/>
<path d="M106.704 226.307C109.338 226.307 111.473 224.383 111.473 222.009C111.473 219.635 109.338 217.71 106.704 217.71C104.07 217.71 101.935 219.635 101.935 222.009C101.935 224.383 104.07 226.307 106.704 226.307Z" fill="#FDA57D"/>
<path d="M101.922 222.275C102.107 222.275 102.258 222.031 102.258 221.73C102.258 221.428 102.107 221.184 101.922 221.184C101.736 221.184 101.585 221.428 101.585 221.73C101.585 222.031 101.736 222.275 101.922 222.275Z" fill="#FDA57D"/>
<path d="M111.493 222.275C111.679 222.275 111.83 222.031 111.83 221.73C111.83 221.428 111.679 221.184 111.493 221.184C111.308 221.184 111.157 221.428 111.157 221.73C111.157 222.031 111.308 222.275 111.493 222.275Z" fill="#FDA57D"/>
<path d="M139.308 142.032H74.5712V144.566H139.308V142.032Z" fill="white"/>
<path d="M139.308 147.1H74.5712V149.635H139.308V147.1Z" fill="white"/>
<path d="M111.164 152.175H74.5712V154.709H111.164V152.175Z" fill="white"/>
<path d="M128.048 157.25H74.5712V159.784H128.048V157.25Z" fill="white"/>
<path d="M119.606 162.324H74.5712V164.859H119.606V162.324Z" fill="white"/>
<path d="M139.308 167.399H74.5712V169.934H139.308V167.399Z" fill="white"/>
<path d="M133.685 175.008H77.3896V195.301H133.685V175.008Z" fill="white"/>
<path d="M474.542 277.158C474.542 277.158 483.959 335.477 539.245 354.849L427.382 354.988L315.518 355.128C370.717 335.617 379.993 277.273 379.993 277.273L474.542 277.158Z" fill="#E0E0E0"/>
<path d="M540.243 354.837L314.404 355.121L314.423 367.441L540.262 367.157L540.243 354.837Z" fill="url(#paint3_linear)"/>
<path d="M539.261 354.838L315.534 355.119L315.549 364.626L539.275 364.345L539.261 354.838Z" fill="#F5F5F5"/>
<path d="M608.919 67.2992L245.077 67.7539C243.098 67.7968 241.219 68.5465 239.852 69.8381C238.486 71.1297 237.745 72.8575 237.792 74.6415L238.075 265.977V272.35C238.075 286.901 250.606 298.657 266.024 298.639L588.639 298.239C604.049 298.239 616.527 286.422 616.507 271.883V265.517L616.224 74.1807C616.247 73.2964 616.075 72.4167 615.72 71.5921C615.365 70.7675 614.833 70.0141 614.155 69.3749C613.476 68.7358 612.665 68.2235 611.766 67.8673C610.868 67.5111 609.9 67.3181 608.919 67.2992Z" fill="url(#paint4_linear)"/>
<path d="M249.396 73.7078H604.217C606.135 73.7078 607.974 74.3945 609.331 75.6168C610.687 76.8391 611.449 78.4969 611.449 80.2255V262.309H242.158V80.2255C242.158 79.3691 242.345 78.5211 242.709 77.7299C243.073 76.9388 243.606 76.22 244.278 75.6147C244.95 75.0094 245.748 74.5294 246.626 74.2022C247.504 73.875 248.445 73.707 249.396 73.7078Z" fill="white"/>
<path d="M586.163 292.576L268.425 292.97C265.04 292.974 261.687 292.377 258.558 291.213C255.429 290.049 252.585 288.341 250.189 286.186C247.792 284.032 245.89 281.473 244.59 278.656C243.291 275.838 242.62 272.818 242.615 269.767V261.885L611.906 261.424V269.306C611.911 272.358 611.249 275.38 609.959 278.201C608.668 281.022 606.773 283.586 604.382 285.747C601.992 287.908 599.152 289.623 596.026 290.795C592.9 291.967 589.549 292.572 586.163 292.576Z" fill="#F5F5F5"/>
<path d="M594.585 88.9865H260.4V241.24H594.585V88.9865Z" fill="#E6E6E6"/>
<path d="M565.815 99.0269H506.661V155.013H565.815V99.0269Z" fill="url(#paint5_linear)"/>
<path d="M563.246 101.464H509.231V152.581H563.246V101.464Z" fill="#3D2CEC"/>
<g opacity="0.5">
<path opacity="0.5" d="M539.931 124.194L539.259 123.976L539.218 124.031H539.178V122.381C539.178 122.178 539.16 121.976 539.124 121.775C540.214 121.052 541.048 120.061 541.525 118.92C542.467 117.819 543.049 116.502 543.203 115.119C543.357 113.736 543.078 112.341 542.398 111.094C541.717 109.846 540.663 108.795 539.353 108.061C538.044 107.326 536.533 106.936 534.99 106.936C533.448 106.936 531.937 107.326 530.628 108.061C529.318 108.795 528.264 109.846 527.583 111.094C526.903 112.341 526.624 113.736 526.778 115.119C526.932 116.502 527.514 117.819 528.456 118.92C528.933 120.061 529.767 121.052 530.857 121.775C530.821 121.976 530.803 122.178 530.803 122.381V124.2C527.194 125.099 524.011 127.039 521.742 129.724C519.474 132.41 518.245 135.692 518.245 139.067V152.593H552.416V139.049C552.417 135.684 551.198 132.412 548.944 129.73C546.69 127.048 543.525 125.104 539.931 124.194Z" fill="url(#paint6_linear)"/>
</g>
<path d="M534.294 123.861H536.38C540.47 123.861 544.393 125.326 547.286 127.933C550.179 130.54 551.804 134.076 551.804 137.763V151.708H518.843V137.763C518.843 135.936 519.243 134.126 520.02 132.437C520.797 130.749 521.935 129.215 523.37 127.924C524.806 126.633 526.509 125.609 528.383 124.912C530.258 124.215 532.267 123.858 534.294 123.861Z" fill="#664EF9"/>
<path d="M535.256 119.017H534.752C532.664 119.017 530.971 120.542 530.971 122.424V124.698C530.971 126.579 532.664 128.105 534.752 128.105H535.256C537.344 128.105 539.037 126.579 539.037 124.698V122.424C539.037 120.542 537.344 119.017 535.256 119.017Z" fill="#FDA57D"/>
<path opacity="0.05" d="M528.173 125.468L530.877 130.694L533.561 128.275L530.877 124.558L528.173 125.468Z" fill="black"/>
<path d="M528.267 125.213L530.958 130.439L533.649 128.014L530.958 124.303L529.72 124.643C529.599 124.677 529.48 124.717 529.364 124.764L528.267 125.213Z" fill="white"/>
<path opacity="0.05" d="M541.842 125.213L539.131 130.694L536.44 128.275L539.205 124.364L541.842 125.213Z" fill="black"/>
<path d="M541.747 124.958L539.057 130.415L536.366 127.99L539.131 124.079L539.635 124.213C540.183 124.353 540.72 124.526 541.243 124.728L541.747 124.958Z" fill="white"/>
<path d="M533.453 127.826L534.96 129.803L536.548 127.826H533.453Z" fill="#FDA57D"/>
<path opacity="0.1" d="M525.059 134.986C525.059 134.986 523.458 149.35 524.494 150.283L525.059 134.986Z" fill="black"/>
<path opacity="0.1" d="M544.862 134.986C544.862 134.986 546.463 149.35 545.427 150.283L544.862 134.986Z" fill="black"/>
<path opacity="0.05" d="M535.001 123.424C536.433 123.424 537.828 123.012 538.983 122.248C538.831 121.394 538.347 120.618 537.617 120.056C536.887 119.495 535.96 119.187 535.001 119.186C534.041 119.187 533.114 119.495 532.384 120.056C531.654 120.618 531.17 121.394 531.018 122.248C532.173 123.012 533.568 123.424 535.001 123.424Z" fill="black"/>
<path d="M535.001 122.115C539.388 122.115 542.945 118.909 542.945 114.954C542.945 111 539.388 107.794 535.001 107.794C530.613 107.794 527.056 111 527.056 114.954C527.056 118.909 530.613 122.115 535.001 122.115Z" fill="black"/>
<path d="M535.001 123.255C538.712 123.255 541.721 120.543 541.721 117.198C541.721 113.852 538.712 111.141 535.001 111.141C531.289 111.141 528.281 113.852 528.281 117.198C528.281 120.543 531.289 123.255 535.001 123.255Z" fill="#FDA57D"/>
<path opacity="0.05" d="M529.586 111.195L531.281 113.063C531.281 113.063 538.727 113.669 539.575 112.129C540.422 110.589 534.671 109.492 534.671 109.492L529.586 111.195Z" fill="black"/>
<path d="M529.586 111.025L531.281 112.893C531.281 112.893 538.727 113.499 539.575 111.959C540.422 110.419 534.671 109.322 534.671 109.322L529.586 111.025Z" fill="black"/>
<path d="M528.267 117.567C528.527 117.567 528.738 117.225 528.738 116.804C528.738 116.382 528.527 116.04 528.267 116.04C528.007 116.04 527.796 116.382 527.796 116.804C527.796 117.225 528.007 117.567 528.267 117.567Z" fill="#FDA57D"/>
<path d="M541.747 117.567C542.007 117.567 542.218 117.225 542.218 116.804C542.218 116.382 542.007 116.04 541.747 116.04C541.487 116.04 541.277 116.382 541.277 116.804C541.277 117.225 541.487 117.567 541.747 117.567Z" fill="#FDA57D"/>
<path d="M566.158 166.187H507.005V222.172H566.158V166.187Z" fill="url(#paint7_linear)"/>
<path d="M563.589 168.618H509.574V219.735H563.589V168.618Z" fill="#3D2CEC"/>
<g opacity="0.5">
<path opacity="0.5" d="M540.664 191.651V189.772C540.664 189.681 540.664 189.584 540.664 189.493C541.808 188.721 542.682 187.668 543.18 186.461C544.008 185.494 544.575 184.367 544.839 183.17C545.103 181.972 545.055 180.735 544.7 179.556C544.345 178.378 543.692 177.289 542.792 176.376C541.893 175.463 540.771 174.75 539.514 174.293C539.61 173.908 539.612 173.509 539.518 173.124C539.424 172.739 539.238 172.378 538.972 172.065C538.706 171.752 538.367 171.495 537.979 171.313C537.591 171.131 537.164 171.028 536.727 171.012C536.29 170.995 535.855 171.065 535.451 171.217C535.047 171.368 534.686 171.598 534.391 171.89C534.097 172.181 533.877 172.528 533.748 172.904C533.618 173.28 533.582 173.678 533.642 174.068C532.286 174.445 531.051 175.111 530.044 176.011C529.036 176.912 528.286 178.019 527.857 179.237C527.427 180.456 527.332 181.751 527.58 183.01C527.827 184.269 528.409 185.455 529.276 186.467C529.775 187.674 530.648 188.727 531.792 189.499C531.792 189.59 531.792 189.681 531.792 189.778V191.766C528.036 192.415 524.648 194.223 522.209 196.878C519.77 199.533 518.433 202.87 518.426 206.318V222.269H554.817V206.342C554.816 202.767 553.384 199.314 550.784 196.615C548.184 193.916 544.591 192.153 540.664 191.651Z" fill="url(#paint8_linear)"/>
</g>
<path d="M535.539 191.991H537.624C539.65 191.991 541.655 192.35 543.527 193.049C545.398 193.748 547.098 194.772 548.53 196.063C549.963 197.354 551.099 198.886 551.874 200.573C552.649 202.26 553.048 204.067 553.048 205.893V219.838H520.088V205.893C520.088 202.206 521.713 198.67 524.605 196.063C527.498 193.455 531.421 191.991 535.512 191.991H535.539Z" fill="white"/>
<path d="M536.494 187.146H535.989C533.902 187.146 532.209 188.672 532.209 190.554V192.827C532.209 194.709 533.902 196.235 535.989 196.235H536.494C538.582 196.235 540.274 194.709 540.274 192.827V190.554C540.274 188.672 538.582 187.146 536.494 187.146Z" fill="#FDB797"/>
<path d="M534.698 195.956L536.205 197.932L537.785 195.956H534.698Z" fill="#FDB797"/>
<path opacity="0.1" d="M526.303 203.11C526.303 203.11 524.702 217.473 525.738 218.407L526.303 203.11Z" fill="black"/>
<path opacity="0.1" d="M546.106 203.11C546.106 203.11 547.707 217.473 546.671 218.407L546.106 203.11Z" fill="black"/>
<path opacity="0.05" d="M536.272 191.554C537.704 191.554 539.1 191.142 540.254 190.378C540.102 189.524 539.618 188.747 538.888 188.186C538.159 187.625 537.231 187.317 536.272 187.316C535.304 187.305 534.363 187.608 533.622 188.17C532.881 188.733 532.389 189.516 532.236 190.378C533.405 191.152 534.821 191.565 536.272 191.554Z" fill="black"/>
<path d="M536.245 190.245C540.632 190.245 544.189 187.039 544.189 183.084C544.189 179.13 540.632 175.924 536.245 175.924C531.858 175.924 528.301 179.13 528.301 183.084C528.301 187.039 531.858 190.245 536.245 190.245Z" fill="#FDD835"/>
<path d="M536.245 191.384C539.956 191.384 542.965 188.673 542.965 185.327C542.965 181.982 539.956 179.271 536.245 179.271C532.534 179.271 529.525 181.982 529.525 185.327C529.525 188.673 532.534 191.384 536.245 191.384Z" fill="#FDB797"/>
<path d="M529.505 185.697C529.765 185.697 529.976 185.355 529.976 184.933C529.976 184.511 529.765 184.169 529.505 184.169C529.245 184.169 529.034 184.511 529.034 184.933C529.034 185.355 529.245 185.697 529.505 185.697Z" fill="#FDB797"/>
<path d="M542.992 185.697C543.252 185.697 543.463 185.355 543.463 184.933C543.463 184.511 543.252 184.169 542.992 184.169C542.732 184.169 542.521 184.511 542.521 184.933C542.521 185.355 542.732 185.697 542.992 185.697Z" fill="#FDB797"/>
<path d="M536.581 178.355C538.071 178.355 539.279 177.267 539.279 175.924C539.279 174.581 538.071 173.492 536.581 173.492C535.092 173.492 533.884 174.581 533.884 175.924C533.884 177.267 535.092 178.355 536.581 178.355Z" fill="#FDD835"/>
<path d="M531.18 178.355C531.18 178.355 533.871 183.205 541.983 180.78L539.292 178.355H531.18Z" fill="#FDD835"/>
<path d="M435.877 108.091H287.233V113.918H435.877V108.091Z" fill="white"/>
<path d="M435.877 119.738H287.233V125.565H435.877V119.738Z" fill="white"/>
<path d="M371.248 131.391H287.233V137.218H371.248V131.391Z" fill="white"/>
<path d="M410.027 143.038H287.233V148.865H410.027V143.038Z" fill="white"/>
<path d="M390.634 154.691H287.233V160.518H390.634V154.691Z" fill="white"/>
<path d="M435.871 166.126H287.226V171.953H435.871V166.126Z" fill="white"/>
<path d="M422.949 183.818H293.697V230.418H422.949V183.818Z" fill="white"/>
<path d="M93.3518 370.224H22.2583V20.7112H442.342V49.8378" stroke="#EC5A06" stroke-width="6" stroke-miterlimit="10" stroke-dasharray="12 12"/>
<g opacity="0.5">
<path opacity="0.5" d="M24.4176 44.0173C37.903 44.0173 48.8352 34.1637 48.8352 22.0087C48.8352 9.85361 37.903 0 24.4176 0C10.9321 0 0 9.85361 0 22.0087C0 34.1637 10.9321 44.0173 24.4176 44.0173Z" fill="url(#paint9_linear)"/>
</g>
<path d="M24.4176 42.7198C37.108 42.7198 47.3956 33.4471 47.3956 22.0087C47.3956 10.5702 37.108 1.29749 24.4176 1.29749C11.7271 1.29749 1.43948 10.5702 1.43948 22.0087C1.43948 33.4471 11.7271 42.7198 24.4176 42.7198Z" fill="#3D2CEC"/>
<path d="M15.8008 20.7112L24.4176 27.8292L36.6197 11.647L40.9314 14.8847L24.4176 34.3044L12.2088 22.0087L15.8008 20.7112Z" fill="white"/>
<path d="M285.403 201.309L122.068 201.514C115.689 201.522 110.525 206.19 110.534 211.939L110.905 451.609C110.914 457.358 116.092 462.013 122.471 462.005L285.806 461.799C292.185 461.791 297.349 457.124 297.34 451.374L296.969 211.704C296.96 205.955 291.782 201.301 285.403 201.309Z" fill="url(#paint10_linear)"/>
<path d="M284.6 221.209L123.598 221.411L123.937 439.891L284.938 439.688L284.6 221.209Z" fill="url(#paint11_linear)"/>
<path d="M282.759 205.247L124.724 205.446C120.013 205.452 116.2 208.899 116.207 213.145L116.568 446.26C116.574 450.506 120.398 453.943 125.109 453.937L283.144 453.738C287.854 453.733 291.668 450.286 291.661 446.04L291.3 212.924C291.293 208.678 287.469 205.241 282.759 205.247Z" fill="white"/>
<path d="M279.687 224.24L128.48 224.43L128.803 432.852L280.01 432.661L279.687 224.24Z" fill="#E6E6E6"/>
<path d="M204.079 449.237C207.519 449.237 210.307 446.661 210.307 443.484C210.307 440.306 207.519 437.73 204.079 437.73C200.638 437.73 197.85 440.306 197.85 443.484C197.85 446.661 200.638 449.237 204.079 449.237Z" fill="#DBDBDB"/>
<path d="M177.91 217.269C179.057 217.267 179.987 216.408 179.985 215.35C179.983 214.292 179.052 213.436 177.904 213.437C176.756 213.438 175.826 214.297 175.828 215.355C175.83 216.414 176.762 217.27 177.91 217.269Z" fill="#DBDBDB"/>
<path d="M214.78 214.154L188.802 214.187C188.519 214.188 188.291 214.394 188.291 214.649L188.293 215.643C188.293 215.897 188.522 216.103 188.805 216.103L214.783 216.07C215.065 216.07 215.294 215.863 215.293 215.609L215.292 214.615C215.292 214.36 215.062 214.154 214.78 214.154Z" fill="#DBDBDB"/>
<path d="M262.486 352.745H203.332V408.731H262.486V352.745Z" fill="url(#paint12_linear)"/>
<path d="M259.916 355.182H205.901V406.299H259.916V355.182Z" fill="#3D2CEC"/>
<g opacity="0.5">
<path opacity="0.5" d="M237.503 377.918L236.83 377.7L236.79 377.755H236.75V376.106C236.75 375.903 236.732 375.7 236.696 375.499C237.786 374.777 238.62 373.785 239.097 372.644C240.039 371.543 240.62 370.226 240.775 368.843C240.929 367.46 240.65 366.066 239.969 364.818C239.289 363.57 238.235 362.52 236.925 361.785C235.616 361.05 234.105 360.66 232.562 360.66C231.02 360.66 229.509 361.05 228.199 361.785C226.89 362.52 225.836 363.57 225.155 364.818C224.475 366.066 224.196 367.46 224.35 368.843C224.504 370.226 225.085 371.543 226.027 372.644C226.505 373.785 227.339 374.777 228.429 375.499C228.393 375.7 228.375 375.903 228.375 376.106V377.925C224.765 378.823 221.582 380.763 219.314 383.449C217.045 386.134 215.817 389.416 215.816 392.791V406.318H250.021V392.767C250.019 389.399 248.794 386.125 246.534 383.444C244.273 380.763 241.102 378.823 237.503 377.918Z" fill="url(#paint13_linear)"/>
</g>
<path d="M231.866 377.579H233.951C238.042 377.579 241.965 379.044 244.858 381.651C247.75 384.258 249.375 387.794 249.375 391.481V405.426H216.415V391.481C216.415 389.654 216.815 387.844 217.592 386.155C218.369 384.467 219.507 382.933 220.942 381.642C222.377 380.351 224.081 379.327 225.955 378.63C227.83 377.933 229.838 377.576 231.866 377.579Z" fill="#EC5A06"/>
<path d="M232.828 372.735H232.324C230.236 372.735 228.543 374.26 228.543 376.142V378.416C228.543 380.297 230.236 381.823 232.324 381.823H232.828C234.916 381.823 236.608 380.297 236.608 378.416V376.142C236.608 374.26 234.916 372.735 232.828 372.735Z" fill="#BE7C5E"/>
<path d="M231.025 381.544L232.532 383.521L234.12 381.544H231.025Z" fill="#BE7C5E"/>
<path opacity="0.1" d="M222.63 388.704C222.63 388.704 221.03 403.068 222.065 404.001L222.63 388.704Z" fill="black"/>
<path opacity="0.1" d="M242.434 388.704C242.434 388.704 244.035 403.068 242.999 404.001L242.434 388.704Z" fill="black"/>
<path opacity="0.05" d="M232.572 377.118C234.005 377.118 235.4 376.706 236.555 375.942C236.403 375.088 235.919 374.311 235.189 373.75C234.459 373.189 233.532 372.881 232.572 372.88C231.613 372.881 230.686 373.189 229.956 373.75C229.226 374.311 228.742 375.088 228.59 375.942C229.745 376.706 231.14 377.118 232.572 377.118Z" fill="black"/>
<path d="M232.572 375.833C236.96 375.833 240.517 372.627 240.517 368.672C240.517 364.718 236.96 361.512 232.572 361.512C228.185 361.512 224.628 364.718 224.628 368.672C224.628 372.627 228.185 375.833 232.572 375.833Z" fill="#444444"/>
<path d="M232.572 376.973C236.284 376.973 239.292 374.261 239.292 370.916C239.292 367.571 236.284 364.859 232.572 364.859C228.861 364.859 225.853 367.571 225.853 370.916C225.853 374.261 228.861 376.973 232.572 376.973Z" fill="#BE7C5E"/>
<path opacity="0.05" d="M227.157 364.913L228.853 366.781C228.853 366.781 236.299 367.387 237.146 365.847C237.994 364.307 232.243 363.21 232.243 363.21L227.157 364.913Z" fill="black"/>
<path d="M227.157 364.744L228.853 366.611C228.853 366.611 236.299 367.217 237.146 365.677C237.994 364.137 232.243 363.04 232.243 363.04L227.157 364.744Z" fill="#444444"/>
<path d="M225.839 371.286C226.099 371.286 226.31 370.943 226.31 370.522C226.31 370.1 226.099 369.758 225.839 369.758C225.579 369.758 225.368 370.1 225.368 370.522C225.368 370.943 225.579 371.286 225.839 371.286Z" fill="#BE7C5E"/>
<path d="M239.319 371.286C239.579 371.286 239.79 370.943 239.79 370.522C239.79 370.1 239.579 369.758 239.319 369.758C239.059 369.758 238.848 370.1 238.848 370.522C238.848 370.943 239.059 371.286 239.319 371.286Z" fill="#BE7C5E"/>
<path d="M227.319 362.015C227.845 361.41 228.57 360.971 229.391 360.76C230.877 360.227 232.424 359.681 234.019 359.778C234.174 359.776 234.326 359.816 234.456 359.893C234.563 359.995 234.651 360.112 234.718 360.239C235.203 360.888 236.561 360.845 236.736 361.609C236.783 361.858 236.669 362.124 236.736 362.367C236.911 362.973 237.86 362.913 238.418 363.258C238.715 363.5 238.896 363.837 238.921 364.197C238.946 364.558 238.814 364.913 238.552 365.186C237.999 365.715 237.282 366.083 236.494 366.241C235.112 366.719 233.609 366.838 232.155 366.587C230.117 366.108 225.348 364.919 227.319 362.015Z" fill="#444444"/>
<path d="M201.946 352.139H142.792V408.124H201.946V352.139Z" fill="url(#paint14_linear)"/>
<path d="M199.377 354.576H145.362V405.693H199.377V354.576Z" fill="#3D2CEC"/>
<g opacity="0.5">
<path opacity="0.5" d="M176.964 377.312L176.291 377.094L176.251 377.148H176.21V375.499C176.21 375.296 176.192 375.093 176.156 374.893C177.246 374.17 178.08 373.178 178.558 372.037C179.5 370.937 180.081 369.62 180.235 368.237C180.389 366.854 180.11 365.459 179.43 364.212C178.75 362.964 177.695 361.913 176.386 361.178C175.077 360.443 173.565 360.054 172.023 360.054C170.481 360.054 168.969 360.443 167.66 361.178C166.351 361.913 165.296 362.964 164.616 364.212C163.935 365.459 163.656 366.854 163.811 368.237C163.965 369.62 164.546 370.937 165.488 372.037C165.966 373.178 166.8 374.17 167.889 374.893C167.853 375.093 167.835 375.296 167.836 375.499V377.318C164.226 378.216 161.043 380.157 158.774 382.842C156.506 385.528 155.277 388.809 155.277 392.185V405.711H189.482V392.16C189.479 388.793 188.255 385.519 185.994 382.838C183.734 380.157 180.562 378.216 176.964 377.312Z" fill="url(#paint15_linear)"/>
</g>
<path d="M171.327 376.973H173.412C175.437 376.973 177.443 377.332 179.314 378.031C181.186 378.729 182.886 379.754 184.318 381.044C185.751 382.335 186.887 383.868 187.662 385.555C188.437 387.241 188.836 389.049 188.836 390.875V404.82H155.876V390.875C155.876 389.047 156.275 387.237 157.052 385.549C157.829 383.861 158.968 382.327 160.403 381.036C161.838 379.745 163.541 378.721 165.416 378.024C167.29 377.327 169.299 376.969 171.327 376.973Z" fill="#664EF9"/>
<path d="M172.289 372.128H171.784C169.696 372.128 168.004 373.654 168.004 375.536V377.809C168.004 379.691 169.696 381.217 171.784 381.217H172.289C174.376 381.217 176.069 379.691 176.069 377.809V375.536C176.069 373.654 174.376 372.128 172.289 372.128Z" fill="#FDA57D"/>
<path opacity="0.1" d="M162.091 388.098C162.091 388.098 160.49 402.461 161.526 403.395L162.091 388.098Z" fill="black"/>
<path opacity="0.1" d="M181.894 388.098C181.894 388.098 183.495 402.461 182.459 403.395L181.894 388.098Z" fill="black"/>
<path opacity="0.05" d="M172.033 376.512C173.465 376.512 174.861 376.1 176.015 375.336C175.863 374.482 175.379 373.705 174.649 373.144C173.92 372.583 172.992 372.274 172.033 372.274C171.074 372.274 170.146 372.583 169.417 373.144C168.687 373.705 168.203 374.482 168.051 375.336C169.205 376.1 170.6 376.512 172.033 376.512Z" fill="black"/>
<path d="M172.033 375.226C176.42 375.226 179.977 372.021 179.977 368.066C179.977 364.111 176.42 360.906 172.033 360.906C167.646 360.906 164.089 364.111 164.089 368.066C164.089 372.021 167.646 375.226 172.033 375.226Z" fill="#444444"/>
<path d="M172.033 376.366C175.744 376.366 178.753 373.655 178.753 370.309C178.753 366.964 175.744 364.252 172.033 364.252C168.322 364.252 165.313 366.964 165.313 370.309C165.313 373.655 168.322 376.366 172.033 376.366Z" fill="#FDA57D"/>
<path opacity="0.05" d="M166.618 364.307L168.313 366.174C168.313 366.174 175.759 366.781 176.607 365.241C177.455 363.701 171.703 362.603 171.703 362.603L166.618 364.307Z" fill="black"/>
<path d="M166.618 364.137L168.313 366.005C168.313 366.005 175.759 366.611 176.607 365.071C177.455 363.531 171.703 362.434 171.703 362.434L166.618 364.137Z" fill="#444444"/>
<path d="M165.3 370.679C165.56 370.679 165.77 370.337 165.77 369.915C165.77 369.493 165.56 369.151 165.3 369.151C165.04 369.151 164.829 369.493 164.829 369.915C164.829 370.337 165.04 370.679 165.3 370.679Z" fill="#FDA57D"/>
<path d="M178.78 370.679C179.04 370.679 179.251 370.337 179.251 369.915C179.251 369.493 179.04 369.151 178.78 369.151C178.52 369.151 178.309 369.493 178.309 369.915C178.309 370.337 178.52 370.679 178.78 370.679Z" fill="#FDA57D"/>
<path d="M254.918 250.905H145.053V255.21H254.918V250.905Z" fill="white"/>
<path d="M254.918 259.514H145.053V263.819H254.918V259.514Z" fill="white"/>
<path d="M207.153 268.124H145.053V272.428H207.153V268.124Z" fill="white"/>
<path d="M235.815 276.739H145.053V281.044H235.815V276.739Z" fill="white"/>
<path d="M221.48 285.349H145.053V289.653H221.48V285.349Z" fill="white"/>
<path d="M254.918 293.958H145.053V298.263H254.918V293.958Z" fill="white"/>
<path d="M245.366 306.878H149.828V341.322H245.366V306.878Z" fill="white"/>
<path d="M167.365 368.024C167.704 367.483 167.985 366.914 168.206 366.326C168.563 365.629 169.126 365.034 169.835 364.608C170.543 364.181 171.369 363.94 172.22 363.91C173.071 363.88 173.915 364.062 174.658 364.437C175.402 364.812 176.016 365.365 176.432 366.035C176.984 366.926 177.165 367.981 177.777 368.842C177.864 368.901 177.964 368.943 178.069 368.965C178.175 368.987 178.285 368.99 178.391 368.972C178.498 368.955 178.6 368.917 178.69 368.862C178.78 368.808 178.856 368.737 178.914 368.654C179.021 368.479 179.082 368.285 179.095 368.086C179.108 367.886 179.071 367.687 178.988 367.502C178.847 367.126 178.612 366.781 178.457 366.411C178.303 365.809 178.077 365.223 177.784 364.665C177.424 364.242 176.965 363.896 176.439 363.652C174.952 362.828 173.23 361.973 171.549 362.44C170.981 362.615 170.444 362.862 169.954 363.173L167.815 364.386C167.128 364.733 166.513 365.187 165.999 365.726C165.535 366.271 164.654 367.902 165.064 368.606C165.548 369.406 166.941 368.527 167.365 368.024Z" fill="#444444"/>
<path d="M170.345 380.756V404.844H174.293L173.708 380.756H170.345Z" fill="white"/>
<path d="M169.685 380.429L171.972 383.43L174.381 380.429H169.685Z" fill="#FDA57D"/>
</g>
<defs>
<linearGradient id="paint0_linear" x1="106.576" y1="285.981" x2="106.576" y2="120.577" gradientUnits="userSpaceOnUse">
<stop stop-color="#808080" stop-opacity="0.25"/>
<stop offset="0.54" stop-color="#808080" stop-opacity="0.12"/>
<stop offset="1" stop-color="#808080" stop-opacity="0.1"/>
</linearGradient>
<linearGradient id="paint1_linear" x1="6763.24" y1="16478.5" x2="6763.24" y2="13872.5" gradientUnits="userSpaceOnUse">
<stop stop-color="#808080" stop-opacity="0.25"/>
<stop offset="0.54" stop-color="#808080" stop-opacity="0.12"/>
<stop offset="1" stop-color="#808080" stop-opacity="0.1"/>
</linearGradient>
<linearGradient id="paint2_linear" x1="7880.63" y1="16706" x2="7880.63" y2="14745.1" gradientUnits="userSpaceOnUse">
<stop stop-color="#808080" stop-opacity="0.25"/>
<stop offset="0.54" stop-color="#808080" stop-opacity="0.12"/>
<stop offset="1" stop-color="#808080" stop-opacity="0.1"/>
</linearGradient>
<linearGradient id="paint3_linear" x1="175748" y1="8451.68" x2="175747" y2="8201.21" gradientUnits="userSpaceOnUse">
<stop stop-color="#808080" stop-opacity="0.25"/>
<stop offset="0.54" stop-color="#808080" stop-opacity="0.12"/>
<stop offset="1" stop-color="#808080" stop-opacity="0.1"/>
</linearGradient>
<linearGradient id="paint4_linear" x1="294447" y1="135259" x2="294447" y2="46809.3" gradientUnits="userSpaceOnUse">
<stop stop-color="#808080" stop-opacity="0.25"/>
<stop offset="0.54" stop-color="#808080" stop-opacity="0.12"/>
<stop offset="1" stop-color="#808080" stop-opacity="0.1"/>
</linearGradient>
<linearGradient id="paint5_linear" x1="47663.5" y1="14412.9" x2="47663.5" y2="9243.17" gradientUnits="userSpaceOnUse">
<stop stop-color="#808080" stop-opacity="0.25"/>
<stop offset="0.54" stop-color="#808080" stop-opacity="0.12"/>
<stop offset="1" stop-color="#808080" stop-opacity="0.1"/>
</linearGradient>
<linearGradient id="paint6_linear" x1="31688.8" y1="13028.8" x2="33426.4" y2="13028.8" gradientUnits="userSpaceOnUse">
<stop stop-color="#808080" stop-opacity="0.25"/>
<stop offset="0.54" stop-color="#808080" stop-opacity="0.12"/>
<stop offset="1" stop-color="#808080" stop-opacity="0.1"/>
</linearGradient>
<linearGradient id="paint7_linear" x1="47693.9" y1="20681.6" x2="47693.9" y2="15511.9" gradientUnits="userSpaceOnUse">
<stop stop-color="#808080" stop-opacity="0.25"/>
<stop offset="0.54" stop-color="#808080" stop-opacity="0.12"/>
<stop offset="1" stop-color="#808080" stop-opacity="0.1"/>
</linearGradient>
<linearGradient id="paint8_linear" x1="34706.4" y1="22501.9" x2="34706.4" y2="18169.9" gradientUnits="userSpaceOnUse">
<stop stop-color="#808080" stop-opacity="0.25"/>
<stop offset="0.54" stop-color="#808080" stop-opacity="0.12"/>
<stop offset="1" stop-color="#808080" stop-opacity="0.1"/>
</linearGradient>
<linearGradient id="paint9_linear" x1="1772.72" y1="3195.22" x2="1772.72" y2="0" gradientUnits="userSpaceOnUse">
<stop stop-color="#808080" stop-opacity="0.25"/>
<stop offset="0.54" stop-color="#808080" stop-opacity="0.12"/>
<stop offset="1" stop-color="#808080" stop-opacity="0.1"/>
</linearGradient>
<linearGradient id="paint10_linear" x1="83361.3" y1="220456" x2="83219.8" y2="108028" gradientUnits="userSpaceOnUse">
<stop stop-color="#808080" stop-opacity="0.25"/>
<stop offset="0.54" stop-color="#808080" stop-opacity="0.12"/>
<stop offset="1" stop-color="#808080" stop-opacity="0.1"/>
</linearGradient>
<linearGradient id="paint11_linear" x1="204.451" y1="442.008" x2="204.175" y2="222.523" gradientUnits="userSpaceOnUse">
<stop stop-opacity="0.09"/>
<stop offset="0.55" stop-opacity="0.07"/>
<stop offset="1" stop-opacity="0.02"/>
</linearGradient>
<linearGradient id="paint12_linear" x1="20685.3" y1="38095" x2="20685.3" y2="32925.2" gradientUnits="userSpaceOnUse">
<stop stop-color="#808080" stop-opacity="0.25"/>
<stop offset="0.54" stop-color="#808080" stop-opacity="0.12"/>
<stop offset="1" stop-color="#808080" stop-opacity="0.1"/>
</linearGradient>
<linearGradient id="paint13_linear" x1="16038.6" y1="32388.7" x2="17777.9" y2="32388.7" gradientUnits="userSpaceOnUse">
<stop stop-color="#808080" stop-opacity="0.25"/>
<stop offset="0.54" stop-color="#808080" stop-opacity="0.12"/>
<stop offset="1" stop-color="#808080" stop-opacity="0.1"/>
</linearGradient>
<linearGradient id="paint14_linear" x1="15300.9" y1="38038.3" x2="15300.9" y2="32868.6" gradientUnits="userSpaceOnUse">
<stop stop-color="#808080" stop-opacity="0.25"/>
<stop offset="0.54" stop-color="#808080" stop-opacity="0.12"/>
<stop offset="1" stop-color="#808080" stop-opacity="0.1"/>
</linearGradient>
<linearGradient id="paint15_linear" x1="12899.6" y1="32342.5" x2="14639" y2="32342.5" gradientUnits="userSpaceOnUse">
<stop stop-color="#808080" stop-opacity="0.25"/>
<stop offset="0.54" stop-color="#808080" stop-opacity="0.12"/>
<stop offset="1" stop-color="#808080" stop-opacity="0.1"/>
</linearGradient>
<clipPath id="clip0">
<rect width="616.48" height="462" fill="white"/>
</clipPath>
</defs>
</svg>
