<svg width="554" height="475" viewBox="0 0 554 475" fill="none" xmlns="http://www.w3.org/2000/svg">
<g clip-path="url(#clip0)">
<g opacity="0.5">
<path opacity="0.5" d="M403.973 32.8616H154.935V357.296H403.973V32.8616Z" fill="url(#paint0_linear)"/>
</g>
<path d="M400.804 35.2516H158.104V352.516H400.804V35.2516Z" fill="white"/>
<path d="M339.971 26.8749H219.571V54.3711H339.971V26.8749Z" fill="url(#paint1_linear)"/>
<path d="M279.771 0C270.475 0 262.94 7.27736 262.94 16.2516C262.94 25.2258 270.475 32.5031 279.771 32.5031C289.067 32.5031 296.602 25.2258 296.602 16.2516C296.602 7.27736 289.067 0 279.771 0ZM279.771 25.6261C277.794 25.6748 275.847 25.1667 274.178 24.1667C272.509 23.1667 271.195 21.7202 270.402 20.012C269.61 18.3039 269.375 16.4118 269.729 14.5775C270.083 12.7432 271.009 11.05 272.388 9.71431C273.768 8.37864 275.539 7.46117 277.474 7.07915C279.409 6.69713 281.422 6.86792 283.254 7.56968C285.085 8.27145 286.654 9.47231 287.758 11.0188C288.863 12.5653 289.453 14.3872 289.454 16.2516C289.484 18.7043 288.482 21.0683 286.667 22.8256C284.852 24.5828 282.372 25.5899 279.771 25.6261Z" fill="url(#paint2_linear)"/>
<path d="M338.704 26.8868H220.839V53.1761H338.704V26.8868Z" fill="#3D2CEC"/>
<path d="M279.771 1.19495C276.512 1.19495 273.327 2.10603 270.618 3.813C267.908 5.51996 265.796 7.94613 264.549 10.7847C263.302 13.6233 262.976 16.7468 263.612 19.7602C264.248 22.7736 265.817 25.5416 268.121 27.7142C270.425 29.8867 273.361 31.3662 276.557 31.9656C279.753 32.565 283.065 32.2574 286.076 31.0816C289.087 29.9059 291.66 27.9147 293.47 25.3601C295.281 22.8054 296.247 19.802 296.247 16.7295C296.247 12.6095 294.511 8.65822 291.421 5.74492C288.331 2.83162 284.141 1.19495 279.771 1.19495ZM279.771 25.6918C277.891 25.6918 276.053 25.1662 274.49 24.1814C272.927 23.1966 271.709 21.7969 270.989 20.1592C270.27 18.5216 270.082 16.7196 270.448 14.9811C270.815 13.2426 271.72 11.6457 273.05 10.3923C274.379 9.13886 276.073 8.28529 277.917 7.93948C279.76 7.59367 281.672 7.77115 283.409 8.44949C285.145 9.12782 286.63 10.2765 287.674 11.7504C288.719 13.2242 289.276 14.957 289.276 16.7295C289.276 19.1065 288.275 21.3861 286.492 23.0668C284.71 24.7476 282.292 25.6918 279.771 25.6918Z" fill="#3D2CEC"/>
<path d="M221.472 86.6353H169.51V135.629H221.472V86.6353Z" fill="url(#paint3_linear)"/>
<path d="M221.65 183.726H169.688V232.72H221.65V183.726Z" fill="url(#paint4_linear)"/>
<path d="M221.827 279.623H169.865V328.616H221.827V279.623Z" fill="url(#paint5_linear)"/>
<path d="M219.571 88.4276H171.411V133.836H219.571V88.4276Z" fill="#EC5A06"/>
<path d="M219.571 184.623H171.411V230.031H219.571V184.623Z" fill="#3D2CEC"/>
<path d="M219.571 280.818H171.411V326.226H219.571V280.818Z" fill="#3D2CEC"/>
<path d="M317.266 102.445H251.255V106.788H317.266V102.445Z" fill="#E0E0E0"/>
<path d="M360.249 108.963H251.255V113.307H360.249V108.963Z" fill="#E0E0E0"/>
<path d="M352.575 115.476H251.255V119.82H352.575V115.476Z" fill="#E0E0E0"/>
<path d="M317.266 198.64H251.255V202.983H317.266V198.64Z" fill="#E0E0E0"/>
<path d="M360.249 205.158H251.255V209.502H360.249V205.158Z" fill="#E0E0E0"/>
<path d="M352.575 211.671H251.255V216.014H352.575V211.671Z" fill="#E0E0E0"/>
<path d="M317.266 294.835H251.255V299.178H317.266V294.835Z" fill="#E0E0E0"/>
<path d="M360.249 301.353H251.255V305.697H360.249V301.353Z" fill="#E0E0E0"/>
<path d="M352.575 307.866H251.255V312.209H352.575V307.866Z" fill="#E0E0E0"/>
<path d="M184.56 108.425L193.305 115.99L205.693 98.8119L210.066 102.247L193.305 122.861L180.917 109.806L184.56 108.425Z" fill="url(#paint6_linear)"/>
<path d="M185.986 108.742L193.59 115.314L204.363 100.377L208.165 103.365L193.59 121.289L182.818 109.937L185.986 108.742Z" fill="white"/>
<path d="M185.986 205.535L193.59 212.107L204.363 197.17L208.165 200.157L193.59 218.082L182.818 206.73L185.986 205.535Z" fill="white"/>
<path d="M185.986 302.327L193.59 308.899L204.363 293.962L208.165 296.95L193.59 314.874L182.818 303.522L185.986 302.327Z" fill="white"/>
<g opacity="0.5">
<path opacity="0.5" d="M412.528 209.717H416.33" stroke="#EC5A06" stroke-width="5" stroke-miterlimit="10"/>
<path opacity="0.5" d="M423.642 209.717H507.726" stroke="#EC5A06" stroke-width="5" stroke-miterlimit="10" stroke-dasharray="11.54 11.54"/>
<path opacity="0.5" d="M511.382 209.717H515.184V206.132" stroke="#EC5A06" stroke-width="5" stroke-miterlimit="10"/>
<path opacity="0.5" d="M515.184 199.291V134.273" stroke="#EC5A06" stroke-width="5" stroke-miterlimit="10" stroke-dasharray="11.45 11.45"/>
<path opacity="0.5" d="M515.184 130.849V127.264" stroke="#EC5A06" stroke-width="5" stroke-miterlimit="10"/>
</g>
<path opacity="0.5" d="M146.698 109.041H61.7841V184.324" stroke="#EC5A06" stroke-width="5" stroke-miterlimit="10" stroke-dasharray="12 12"/>
<path opacity="0.5" d="M195.491 365.362V408.38H322.228" stroke="#EC5A06" stroke-width="5" stroke-miterlimit="10" stroke-dasharray="12 12"/>
<g opacity="0.5">
<path opacity="0.5" d="M553.56 63.9846L504.728 25.0944L456.657 63.901L456.226 63.6739V63.9846H455.897L456.226 64.1579V64.2953V114.693V115.314H553.23L552.641 115.004H553.56V63.9846Z" fill="url(#paint7_linear)"/>
</g>
<path d="M551.621 113.223H458.47V64.2296L504.728 26.8868L551.621 64.2296V113.223Z" fill="white"/>
<path d="M457.836 64.2296L504.095 88.7265L550.987 64.2296" fill="#E0E0E0"/>
<g opacity="0.5">
<path opacity="0.5" d="M505.058 88.111L476.53 105.157V41.2264H532.927V73.7415L505.058 88.111Z" fill="url(#paint8_linear)"/>
</g>
<path d="M505.045 88.4277L477.797 105.157V42.4214H531.66V74.327L505.045 88.4277Z" fill="#FAFAFA"/>
<path opacity="0.05" d="M458.153 112.925H551.304L458.153 63.9308V112.925Z" fill="black"/>
<path d="M458.153 113.522H551.304L458.153 64.5283V113.522Z" fill="#F5F5F5"/>
<path d="M524.056 51.9812H484.767V54.3711H524.056V51.9812Z" fill="white"/>
<path d="M524.056 56.761H484.767V59.1509H524.056V56.761Z" fill="white"/>
<path d="M524.056 61.5409H484.767V63.9308H524.056V61.5409Z" fill="#3D2CEC"/>
<path d="M524.056 66.3208H484.767V68.7107H524.056V66.3208Z" fill="white"/>
<path d="M524.056 71.1006H484.767V73.4905H524.056V71.1006Z" fill="#3D2CEC"/>
<path opacity="0.05" d="M531.66 74.6856V73.4906L503.943 88.0154L504.697 88.4098L531.66 74.6856Z" fill="black"/>
<g opacity="0.5">
<path opacity="0.5" d="M453.064 370.44H342.835V475H453.064V370.44Z" fill="url(#paint9_linear)"/>
</g>
<path d="M450.549 372.83H345.357V472.61H450.549V372.83Z" fill="#F5F5F5"/>
<path d="M444.845 375.818H352.328V452.296H444.845V375.818Z" fill="white"/>
<path d="M444.845 427.799C419.276 427.799 398.587 421.651 398.587 414.057C373.017 414.057 352.328 419.404 352.328 426.006V454.686H444.845V427.799Z" fill="#E0E0E0"/>
<path d="M429.637 401.509C434.887 401.509 439.142 397.497 439.142 392.547C439.142 387.597 434.887 383.585 429.637 383.585C424.387 383.585 420.132 387.597 420.132 392.547C420.132 397.497 424.387 401.509 429.637 401.509Z" fill="#3D2CEC"/>
<g opacity="0.5">
<path opacity="0.5" d="M129.271 191.046H0V277.382H129.271V191.046Z" fill="url(#paint10_linear)"/>
</g>
<path d="M125.469 193.585H3.80212V274.843H125.469V193.585Z" fill="white"/>
<path d="M67.1387 214.103C66.1215 214.104 65.1054 214.168 64.097 214.294L67.1387 236.209L43.7494 234.74C43.7177 235.224 43.6924 235.714 43.6924 236.209C43.6924 240.582 45.0675 244.856 47.6438 248.491C50.2201 252.127 53.8819 254.96 58.1661 256.634C62.4504 258.307 67.1646 258.745 71.7128 257.892C76.2609 257.039 80.4386 254.933 83.7177 251.841C86.9967 248.75 89.2297 244.811 90.1344 240.522C91.0391 236.234 90.5748 231.789 88.8002 227.75C87.0256 223.71 84.0204 220.257 80.1647 217.828C76.309 215.399 71.7759 214.103 67.1387 214.103Z" fill="#E0E0E0"/>
<path d="M59.0276 210.111C53.6518 210.776 48.6863 213.176 44.9764 216.904C41.2665 220.632 39.0415 225.457 38.6801 230.557L62.0693 232.027L59.0276 210.111Z" fill="#3D2CEC"/>
</g>
<defs>
<linearGradient id="paint0_linear" x1="279.454" y1="357.296" x2="279.454" y2="32.8616" gradientUnits="userSpaceOnUse">
<stop stop-color="#808080" stop-opacity="0.25"/>
<stop offset="0.54" stop-color="#808080" stop-opacity="0.12"/>
<stop offset="1" stop-color="#808080" stop-opacity="0.1"/>
</linearGradient>
<linearGradient id="paint1_linear" x1="53376.1" y1="2529.03" x2="53376.1" y2="1263.66" gradientUnits="userSpaceOnUse">
<stop stop-color="#808080" stop-opacity="0.25"/>
<stop offset="0.54" stop-color="#808080" stop-opacity="0.12"/>
<stop offset="1" stop-color="#808080" stop-opacity="0.1"/>
</linearGradient>
<linearGradient id="paint2_linear" x1="20618.6" y1="3474.26" x2="20618.6" y2="1706.42" gradientUnits="userSpaceOnUse">
<stop stop-color="#808080" stop-opacity="0.25"/>
<stop offset="0.54" stop-color="#808080" stop-opacity="0.12"/>
<stop offset="1" stop-color="#808080" stop-opacity="0.1"/>
</linearGradient>
<linearGradient id="paint3_linear" x1="16199.8" y1="11208.2" x2="16199.8" y2="7190.72" gradientUnits="userSpaceOnUse">
<stop stop-color="#808080" stop-opacity="0.25"/>
<stop offset="0.54" stop-color="#808080" stop-opacity="0.12"/>
<stop offset="1" stop-color="#808080" stop-opacity="0.1"/>
</linearGradient>
<linearGradient id="paint4_linear" x1="16214.5" y1="19266.8" x2="16214.5" y2="15249.3" gradientUnits="userSpaceOnUse">
<stop stop-color="#808080" stop-opacity="0.25"/>
<stop offset="0.54" stop-color="#808080" stop-opacity="0.12"/>
<stop offset="1" stop-color="#808080" stop-opacity="0.1"/>
</linearGradient>
<linearGradient id="paint5_linear" x1="16229.2" y1="27226.2" x2="16229.2" y2="23208.7" gradientUnits="userSpaceOnUse">
<stop stop-color="#808080" stop-opacity="0.25"/>
<stop offset="0.54" stop-color="#808080" stop-opacity="0.12"/>
<stop offset="1" stop-color="#808080" stop-opacity="0.1"/>
</linearGradient>
<linearGradient id="paint6_linear" x1="9173.51" y1="5043.96" x2="9173.51" y2="4075.76" gradientUnits="userSpaceOnUse">
<stop stop-color="#808080" stop-opacity="0.25"/>
<stop offset="0.54" stop-color="#808080" stop-opacity="0.12"/>
<stop offset="1" stop-color="#808080" stop-opacity="0.1"/>
</linearGradient>
<linearGradient id="paint7_linear" x1="78244.6" y1="17437.6" x2="78244.6" y2="3814.34" gradientUnits="userSpaceOnUse">
<stop stop-color="#808080" stop-opacity="0.25"/>
<stop offset="0.54" stop-color="#808080" stop-opacity="0.12"/>
<stop offset="1" stop-color="#808080" stop-opacity="0.1"/>
</linearGradient>
<linearGradient id="paint8_linear" x1="45397.4" y1="11293" x2="45397.4" y2="4452.45" gradientUnits="userSpaceOnUse">
<stop stop-color="#808080" stop-opacity="0.25"/>
<stop offset="0.54" stop-color="#808080" stop-opacity="0.12"/>
<stop offset="1" stop-color="#808080" stop-opacity="0.1"/>
</linearGradient>
<linearGradient id="paint9_linear" x1="69566.7" y1="83495.4" x2="69566.7" y2="65197.5" gradientUnits="userSpaceOnUse">
<stop stop-color="#808080" stop-opacity="0.25"/>
<stop offset="0.54" stop-color="#808080" stop-opacity="0.12"/>
<stop offset="1" stop-color="#808080" stop-opacity="0.1"/>
</linearGradient>
<linearGradient id="paint10_linear" x1="13185.7" y1="40272.8" x2="13185.7" y2="27797.1" gradientUnits="userSpaceOnUse">
<stop stop-color="#808080" stop-opacity="0.25"/>
<stop offset="0.54" stop-color="#808080" stop-opacity="0.12"/>
<stop offset="1" stop-color="#808080" stop-opacity="0.1"/>
</linearGradient>
<clipPath id="clip0">
<rect width="553.56" height="475" fill="white"/>
</clipPath>
</defs>
</svg>
