<svg width="50" height="38" viewBox="0 0 50 38" fill="none" xmlns="http://www.w3.org/2000/svg">
<path d="M48.3049 0.999998H39.5549V14.8L27.6549 0.999998H17.7049L31.9049 17.4L16.9549 36H27.2049L39.5549 20.7V36H48.3049V0.999998Z" fill="#BABABA"/>
<path d="M13.865 36H1.36504L1.36504 0.999998H13.865C17.6984 0.999998 21.015 1.71666 23.815 3.15C26.615 4.55 28.7817 6.56667 30.315 9.2C31.8484 11.8 32.615 14.9 32.615 18.5C32.615 22.1 31.8484 25.2167 30.315 27.85C28.7817 30.45 26.615 32.4667 23.815 33.9C21.015 35.3 17.6984 36 13.865 36ZM13.565 8.55H10.115V28.45H13.565C15.365 28.45 17.0484 28.15 18.615 27.55C20.1817 26.9167 21.4484 25.8833 22.415 24.45C23.3817 22.9833 23.865 21 23.865 18.5C23.865 16 23.3817 14.0333 22.415 12.6C21.4484 11.1333 20.1817 10.1 18.615 9.5C17.0484 8.86667 15.365 8.55 13.565 8.55Z" fill="#664EF9"/>
</svg>
