<svg width="18" height="20" viewBox="0 0 18 20" fill="none" xmlns="http://www.w3.org/2000/svg">
<path d="M16.9995 14.4545V16.9603C17.0004 17.193 16.9545 17.4232 16.8648 17.6364C16.775 17.8495 16.6434 18.0408 16.4783 18.1981C16.3132 18.3553 16.1183 18.4751 15.906 18.5496C15.6938 18.6241 15.4689 18.6518 15.2457 18.6309C12.7702 18.3516 10.3923 17.4733 8.30312 16.0666C6.35937 14.7842 4.71141 13.0731 3.47627 11.055C2.11669 8.87591 1.27059 6.39498 1.00653 3.81316C0.986426 3.58218 1.01286 3.34938 1.08416 3.12959C1.15546 2.9098 1.27005 2.70784 1.42065 2.53655C1.57124 2.36526 1.75454 2.22841 1.95886 2.1347C2.16319 2.04099 2.38407 1.99249 2.60744 1.99227H5.02086C5.41128 1.98828 5.78977 2.13182 6.0858 2.39615C6.38182 2.66047 6.57517 3.02754 6.62981 3.42893C6.73168 4.23085 6.92059 5.01823 7.19295 5.77605C7.30118 6.07501 7.32461 6.39992 7.26045 6.71229C7.19629 7.02465 7.04723 7.31137 6.83093 7.53847L5.80925 8.59926C6.95446 10.6904 8.62206 12.4218 10.6361 13.6109L11.6578 12.5501C11.8765 12.3255 12.1527 12.1708 12.4535 12.1041C12.7544 12.0375 13.0673 12.0618 13.3552 12.1742C14.0851 12.457 14.8435 12.6531 15.6158 12.7589C16.0066 12.8162 16.3635 13.0205 16.6186 13.3332C16.8737 13.6458 17.0093 14.0449 16.9995 14.4545Z" stroke="#664EF9" stroke-width="2" stroke-linecap="round" stroke-linejoin="round"/>
</svg>
